<svg width="139" height="30" viewBox="0 0 139 30" fill="none" xmlns="http://www.w3.org/2000/svg">
<path d="M30.0566 15C30.002 14.7721 29.8789 14.6491 29.6875 14.6309H28.7578V7.16602H28.9902C29.6465 7.16602 30.1113 7.45768 30.3848 8.04102C30.4395 8.16862 30.4987 8.31901 30.5625 8.49219L30.9863 9.72266H31.3965L31.3418 6.79688H24.2598L24.2051 9.72266H24.6152L25.0391 8.49219C25.2396 7.90885 25.4993 7.52604 25.8184 7.34375C26.0371 7.22526 26.3014 7.16602 26.6113 7.16602H26.8438V14.6309H25.5449V15H30.0566ZM35.9766 15V14.6309H34.8828V11.2539H35.5527L37.5898 15.0137L39.9961 15C39.9961 14.7995 39.9232 14.6855 39.7773 14.6582C39.7318 14.6491 39.6862 14.6445 39.6406 14.6445H39.4629L37.3574 11.0898C38.3145 10.8255 38.9023 10.306 39.1211 9.53125C39.1758 9.33984 39.2031 9.14388 39.2031 8.94336C39.2031 8.26888 38.9023 7.72656 38.3008 7.31641C37.7904 6.97005 37.1706 6.79688 36.4414 6.79688H31.875V7.16602H32.9688V14.6309H31.875V15H35.9766ZM35.6211 7.16602C36.3685 7.16602 36.8516 7.53516 37.0703 8.27344C37.1341 8.51042 37.166 8.75651 37.166 9.01172C37.166 9.79557 36.929 10.3379 36.4551 10.6387C36.2454 10.7754 36.0039 10.8438 35.7305 10.8438H34.8828V7.16602H35.6211ZM48.8418 15C48.8418 14.7812 48.7826 14.6628 48.6641 14.6445C48.6185 14.6354 48.5684 14.6309 48.5137 14.6309H48.1035L44.877 6.79688H43.8652L40.8711 14.6309H39.9961V15H42.5117C42.5117 14.7812 42.4525 14.6628 42.334 14.6445C42.2884 14.6354 42.2383 14.6309 42.1836 14.6309H41.418L42.4023 12.0059H45.123L46.1484 14.6309H45.1777V15H48.8418ZM44.959 11.5957H42.5664L43.7422 8.45117L44.959 11.5957ZM49.1152 6.79688V7.16602H50.209V14.6309H49.1152V15H53.1895C54.4564 15 55.5 14.6172 56.3203 13.8516C57.1224 13.0951 57.5234 12.1198 57.5234 10.9258C57.5234 9.40365 56.9492 8.26888 55.8008 7.52148C55.0443 7.03841 54.1602 6.79688 53.1484 6.79688H49.1152ZM53.1895 7.16602C54.1465 7.16602 54.7845 7.63542 55.1035 8.57422C55.2858 9.14844 55.377 9.90951 55.377 10.8574C55.377 12.7533 54.9987 13.9245 54.2422 14.3711C53.9505 14.5443 53.5905 14.6309 53.1621 14.6309H52.123V7.16602H53.1895ZM62.377 15C62.3223 14.7721 62.1992 14.6491 62.0078 14.6309H61.2832V7.16602H62.377V6.79688H58.2754V7.16602H59.3691V14.6309H58.2754V15H62.377ZM68.707 15C68.6523 14.7721 68.5293 14.6491 68.3379 14.6309H67.4082V7.16602H67.6406C68.2969 7.16602 68.7617 7.45768 69.0352 8.04102C69.0898 8.16862 69.1491 8.31901 69.2129 8.49219L69.6367 9.72266H70.0469L69.9922 6.79688H62.9102L62.8555 9.72266H63.2656L63.6895 8.49219C63.89 7.90885 64.1497 7.52604 64.4688 7.34375C64.6875 7.22526 64.9518 7.16602 65.2617 7.16602H65.4941V14.6309H64.1953V15H68.707ZM74.627 15C74.5723 14.7721 74.4492 14.6491 74.2578 14.6309H73.5332V10.9805H77.0059V14.6309H75.9121V15H80.0137C79.959 14.7721 79.8359 14.6491 79.6445 14.6309H78.9199V7.16602H80.0137V6.79688H75.9121V7.16602H77.0059V10.5703H73.5332V7.16602H74.627V6.79688H70.5254V7.16602H71.6191V14.6309H70.5254V15H74.627ZM85.1406 6.66016C83.9284 6.66016 82.903 7.04297 82.0645 7.80859C81.1986 8.60156 80.7656 9.6224 80.7656 10.8711C80.7656 12.3021 81.2806 13.4186 82.3105 14.2207C83.1035 14.8314 84.0332 15.1367 85.0996 15.1367C86.3118 15.1367 87.3327 14.7539 88.1621 13.9883C89.0098 13.1862 89.4336 12.1654 89.4336 10.9258C89.4336 9.42188 88.9004 8.27799 87.834 7.49414C87.0684 6.93815 86.1706 6.66016 85.1406 6.66016ZM85.1406 14.7402C84.2109 14.7402 83.582 14.3164 83.2539 13.4688C83.026 12.8672 82.9121 12.0195 82.9121 10.9258C82.9121 8.83854 83.3633 7.60352 84.2656 7.2207C84.5117 7.11133 84.7897 7.05664 85.0996 7.05664C86.1296 7.05664 86.7904 7.63542 87.082 8.79297C87.2188 9.34896 87.2871 10.0371 87.2871 10.8574C87.2871 12.7988 86.9225 14.002 86.1934 14.4668C85.9108 14.6491 85.5599 14.7402 85.1406 14.7402ZM90.0488 7.16602H91.1426V11.9922C91.1608 14.0794 92.3138 15.1276 94.6016 15.1367C96.069 15.1367 96.9941 14.5762 97.377 13.4551C97.5228 12.9993 97.5957 12.4479 97.5957 11.8008V7.16602H98.6895V6.79688H95.9961V7.16602H97.0898V11.8828C97.0807 13.7695 96.347 14.7174 94.8887 14.7266C93.9681 14.7266 93.3984 14.2253 93.1797 13.2227C93.0977 12.849 93.0566 12.4023 93.0566 11.8828V7.16602H94.1504V6.79688H90.0488V7.16602ZM105.826 12.7168C105.826 11.9603 105.411 11.3132 104.582 10.7754C104.464 10.7116 103.985 10.4564 103.146 10.0098C102.381 9.60872 101.902 9.21224 101.711 8.82031C101.62 8.62891 101.574 8.42839 101.574 8.21875C101.574 7.68099 101.834 7.32552 102.354 7.15234C102.527 7.09766 102.709 7.07031 102.9 7.07031C103.648 7.07031 104.208 7.35286 104.582 7.91797C104.81 8.27344 104.928 8.69727 104.938 9.18945H105.471V6.71484C105.215 6.71484 105.065 6.80143 105.02 6.97461C105.01 7.03841 105.006 7.11133 105.006 7.19336C104.249 6.83789 103.452 6.66016 102.613 6.66016C101.51 6.66016 100.681 6.94727 100.125 7.52148C99.7695 7.89518 99.5918 8.33724 99.5918 8.84766C99.5918 9.60417 100.025 10.2513 100.891 10.7891C101 10.862 101.492 11.1217 102.367 11.5684C103.151 11.9785 103.639 12.375 103.83 12.7578C103.912 12.9401 103.953 13.127 103.953 13.3184C103.953 13.9746 103.661 14.4121 103.078 14.6309C102.868 14.7038 102.636 14.7402 102.381 14.7402C101.415 14.7402 100.736 14.2982 100.344 13.4141C100.18 13.0404 100.079 12.612 100.043 12.1289H99.5098V15.0273C99.7559 15.0273 99.9017 14.9544 99.9473 14.8086C99.9655 14.7174 99.9746 14.5944 99.9746 14.4395C100.676 14.9043 101.524 15.1367 102.518 15.1367C103.675 15.1367 104.564 14.8405 105.184 14.248C105.612 13.8288 105.826 13.3184 105.826 12.7168ZM113.551 9.42188L113.496 6.79688H106.66V7.16602H107.754V14.6309H106.66V15H113.496L113.551 12.375H113.154L112.84 13.3184C112.603 14.0202 112.225 14.4395 111.705 14.5762C111.55 14.6126 111.386 14.6309 111.213 14.6309H109.668V10.9805H112.293V10.5703H109.668V7.16602H111.213C111.96 7.16602 112.475 7.52148 112.758 8.23242C112.794 8.31445 112.826 8.39648 112.854 8.47852L113.154 9.42188H113.551Z" fill="white"/>
<g filter="url(#filter0_d_3_27)">
<line x1="4" y1="21" x2="135" y2="21" stroke="white" stroke-width="2" stroke-linejoin="round"/>
</g>
<g filter="url(#filter1_d_3_27)">
<line x1="4" y1="1" x2="135" y2="1" stroke="white" stroke-width="2" stroke-linejoin="round"/>
</g>
<g filter="url(#filter2_d_3_27)">
<line x1="120" y1="6" x2="135" y2="6" stroke="white" stroke-width="2" stroke-linejoin="round"/>
</g>
<g filter="url(#filter3_d_3_27)">
<line x1="4" y1="6" x2="19" y2="6" stroke="white" stroke-width="2" stroke-linejoin="round"/>
</g>
<g filter="url(#filter4_d_3_27)">
<line x1="120" y1="11" x2="135" y2="11" stroke="white" stroke-width="2" stroke-linejoin="round"/>
</g>
<g filter="url(#filter5_d_3_27)">
<line x1="4" y1="11" x2="19" y2="11" stroke="white" stroke-width="2" stroke-linejoin="round"/>
</g>
<g filter="url(#filter6_d_3_27)">
<line x1="120" y1="16" x2="135" y2="16" stroke="white" stroke-width="2" stroke-linejoin="round"/>
</g>
<g filter="url(#filter7_d_3_27)">
<line x1="4" y1="16" x2="19" y2="16" stroke="white" stroke-width="2" stroke-linejoin="round"/>
</g>
<defs>
<filter id="filter0_d_3_27" x="0" y="20" width="139" height="10" filterUnits="userSpaceOnUse" color-interpolation-filters="sRGB">
<feFlood flood-opacity="0" result="BackgroundImageFix"/>
<feColorMatrix in="SourceAlpha" type="matrix" values="0 0 0 0 0 0 0 0 0 0 0 0 0 0 0 0 0 0 127 0" result="hardAlpha"/>
<feOffset dy="4"/>
<feGaussianBlur stdDeviation="2"/>
<feColorMatrix type="matrix" values="0 0 0 0 0 0 0 0 0 0 0 0 0 0 0 0 0 0 0.25 0"/>
<feBlend mode="normal" in2="BackgroundImageFix" result="effect1_dropShadow_3_27"/>
<feBlend mode="normal" in="SourceGraphic" in2="effect1_dropShadow_3_27" result="shape"/>
</filter>
<filter id="filter1_d_3_27" x="0" y="0" width="139" height="10" filterUnits="userSpaceOnUse" color-interpolation-filters="sRGB">
<feFlood flood-opacity="0" result="BackgroundImageFix"/>
<feColorMatrix in="SourceAlpha" type="matrix" values="0 0 0 0 0 0 0 0 0 0 0 0 0 0 0 0 0 0 127 0" result="hardAlpha"/>
<feOffset dy="4"/>
<feGaussianBlur stdDeviation="2"/>
<feColorMatrix type="matrix" values="0 0 0 0 0 0 0 0 0 0 0 0 0 0 0 0 0 0 0.25 0"/>
<feBlend mode="normal" in2="BackgroundImageFix" result="effect1_dropShadow_3_27"/>
<feBlend mode="normal" in="SourceGraphic" in2="effect1_dropShadow_3_27" result="shape"/>
</filter>
<filter id="filter2_d_3_27" x="116" y="5" width="23" height="10" filterUnits="userSpaceOnUse" color-interpolation-filters="sRGB">
<feFlood flood-opacity="0" result="BackgroundImageFix"/>
<feColorMatrix in="SourceAlpha" type="matrix" values="0 0 0 0 0 0 0 0 0 0 0 0 0 0 0 0 0 0 127 0" result="hardAlpha"/>
<feOffset dy="4"/>
<feGaussianBlur stdDeviation="2"/>
<feColorMatrix type="matrix" values="0 0 0 0 0 0 0 0 0 0 0 0 0 0 0 0 0 0 0.25 0"/>
<feBlend mode="normal" in2="BackgroundImageFix" result="effect1_dropShadow_3_27"/>
<feBlend mode="normal" in="SourceGraphic" in2="effect1_dropShadow_3_27" result="shape"/>
</filter>
<filter id="filter3_d_3_27" x="0" y="5" width="23" height="10" filterUnits="userSpaceOnUse" color-interpolation-filters="sRGB">
<feFlood flood-opacity="0" result="BackgroundImageFix"/>
<feColorMatrix in="SourceAlpha" type="matrix" values="0 0 0 0 0 0 0 0 0 0 0 0 0 0 0 0 0 0 127 0" result="hardAlpha"/>
<feOffset dy="4"/>
<feGaussianBlur stdDeviation="2"/>
<feColorMatrix type="matrix" values="0 0 0 0 0 0 0 0 0 0 0 0 0 0 0 0 0 0 0.25 0"/>
<feBlend mode="normal" in2="BackgroundImageFix" result="effect1_dropShadow_3_27"/>
<feBlend mode="normal" in="SourceGraphic" in2="effect1_dropShadow_3_27" result="shape"/>
</filter>
<filter id="filter4_d_3_27" x="116" y="10" width="23" height="10" filterUnits="userSpaceOnUse" color-interpolation-filters="sRGB">
<feFlood flood-opacity="0" result="BackgroundImageFix"/>
<feColorMatrix in="SourceAlpha" type="matrix" values="0 0 0 0 0 0 0 0 0 0 0 0 0 0 0 0 0 0 127 0" result="hardAlpha"/>
<feOffset dy="4"/>
<feGaussianBlur stdDeviation="2"/>
<feColorMatrix type="matrix" values="0 0 0 0 0 0 0 0 0 0 0 0 0 0 0 0 0 0 0.25 0"/>
<feBlend mode="normal" in2="BackgroundImageFix" result="effect1_dropShadow_3_27"/>
<feBlend mode="normal" in="SourceGraphic" in2="effect1_dropShadow_3_27" result="shape"/>
</filter>
<filter id="filter5_d_3_27" x="0" y="10" width="23" height="10" filterUnits="userSpaceOnUse" color-interpolation-filters="sRGB">
<feFlood flood-opacity="0" result="BackgroundImageFix"/>
<feColorMatrix in="SourceAlpha" type="matrix" values="0 0 0 0 0 0 0 0 0 0 0 0 0 0 0 0 0 0 127 0" result="hardAlpha"/>
<feOffset dy="4"/>
<feGaussianBlur stdDeviation="2"/>
<feColorMatrix type="matrix" values="0 0 0 0 0 0 0 0 0 0 0 0 0 0 0 0 0 0 0.25 0"/>
<feBlend mode="normal" in2="BackgroundImageFix" result="effect1_dropShadow_3_27"/>
<feBlend mode="normal" in="SourceGraphic" in2="effect1_dropShadow_3_27" result="shape"/>
</filter>
<filter id="filter6_d_3_27" x="116" y="15" width="23" height="10" filterUnits="userSpaceOnUse" color-interpolation-filters="sRGB">
<feFlood flood-opacity="0" result="BackgroundImageFix"/>
<feColorMatrix in="SourceAlpha" type="matrix" values="0 0 0 0 0 0 0 0 0 0 0 0 0 0 0 0 0 0 127 0" result="hardAlpha"/>
<feOffset dy="4"/>
<feGaussianBlur stdDeviation="2"/>
<feColorMatrix type="matrix" values="0 0 0 0 0 0 0 0 0 0 0 0 0 0 0 0 0 0 0.25 0"/>
<feBlend mode="normal" in2="BackgroundImageFix" result="effect1_dropShadow_3_27"/>
<feBlend mode="normal" in="SourceGraphic" in2="effect1_dropShadow_3_27" result="shape"/>
</filter>
<filter id="filter7_d_3_27" x="0" y="15" width="23" height="10" filterUnits="userSpaceOnUse" color-interpolation-filters="sRGB">
<feFlood flood-opacity="0" result="BackgroundImageFix"/>
<feColorMatrix in="SourceAlpha" type="matrix" values="0 0 0 0 0 0 0 0 0 0 0 0 0 0 0 0 0 0 127 0" result="hardAlpha"/>
<feOffset dy="4"/>
<feGaussianBlur stdDeviation="2"/>
<feColorMatrix type="matrix" values="0 0 0 0 0 0 0 0 0 0 0 0 0 0 0 0 0 0 0.25 0"/>
<feBlend mode="normal" in2="BackgroundImageFix" result="effect1_dropShadow_3_27"/>
<feBlend mode="normal" in="SourceGraphic" in2="effect1_dropShadow_3_27" result="shape"/>
</filter>
</defs>
</svg>
